<?xml version="1.0" encoding="utf-8"?>
<!-- Generator: Adobe Illustrator 28.1.0, SVG Export Plug-In . SVG Version: 6.00 Build 0)  -->
<svg version="1.1" id="main" xmlns="http://www.w3.org/2000/svg" xmlns:xlink="http://www.w3.org/1999/xlink" x="0px"
	y="0px" viewBox="0 0 728.5 364.3" style="enable-background:new 0 0 728.5 364.3;" xml:space="preserve">
	<style type="text/css">
		.st0 {
			display: none;
		}

		.st1 {
			display: inline;
			fill: #0000FF;
			stroke: #0000FF;
			stroke-miterlimit: 10;
		}

		.st2 {
			display: inline;
			fill: #FFFF00;
			stroke: #FFFF00;
			stroke-miterlimit: 10;
		}

		.st3 {
			fill: #FFFFFF;
		}

		.st4 {
			display: inline;
			fill: #FFFFF9;
		}

		.st5 {
			fill: #FFFFF9;
		}
	</style>
	<g id="components" class="st0">
		<circle id="output" class="st1" cx="694.8" cy="335.2" r="5.3" />
		<rect id="tonnetz" x="4" y="4.2" class="st2" width="462.6" height="357" />
		<rect x="501" y="28.3" class="st3" width="195.8" height="161" />
	</g>
	<g>
		<g id="Background_00000032614671307387795170000017505336130658181810_" class="st0">
			<path class="st4" d="M700.6,329.4c0,5.8,0,5.8,0,11.6c-5.8,0-5.8,0-11.6,0c0-5.8,0-5.8,0-11.6
			C694.8,329.4,694.8,329.4,700.6,329.4z" />
		</g>
		<rect id="ground" fill="#FFFFF9" y="0" class="st5" width="728.5" height="364.3" />

		<g>
			<path class="st5" d="M694.6,330.7c1.6-0.1,3.1,0.8,4,2c0.9,1.3,1,3.3,0.2,4.7c-0.5,0.8-1.5,1.7-2.4,2c-0.7,0.3-2,0.3-2.7,0.1
			c-1.1-0.3-2.2-1.3-2.8-2.2c-0.8-1.3-0.7-3,0-4.3C691.6,331.7,693,330.7,694.6,330.7z" />
			<g>
				<path class="st5" d="M695.2,331.8c-1.2,1.7-1.2,1.7-2.4,3.5c-0.2,0.3-0.2,0.5,0.1,0.7c0,0,0.8,0.7,0.9,0.7
				c0.1,0.1,0.3,0.2,0.5,0.2c0.2,0,0.7-0.6,0.9-0.7c0,0,0.1,0.1,0.1,0.1c0.1-0.1,0.3-0.2,0.4-0.4c0,0,0.1,0,0.1-0.1
				c0.2-0.2,0.4-0.3,0.6-0.5c0,0,0-0.1,0-0.1c0,0,0.3-0.3,0.3-0.3c0.1,0,0.3,0.2,0.2,0.4c0,0-0.2,0.2-0.2,0.2c0,0.1,0.2,0.3,0.5,0.1
				c0.1-0.1,0.7-1,0.8-1.2c0.1,0.3-0.1,1.1,0.1,1.3c-0.1,0.4-0.4,0.9-0.6,1.2c0-0.2-0.2-0.4-0.3-0.3c-0.1,0-0.4,0.5-1,0.9
				c-1.7,0.9-3.8,0-4.3-1.8c-0.1-0.3,0-1-0.6-0.5c0,0,0,0,0-0.1c0-0.5,0-1,0.2-1.4c0.2,0,0.5-0.5,0.6-0.7
				C692.9,332.2,693.9,331.7,695.2,331.8z" />
				<path class="st5" d="M698.2,335.9c-0.1-0.2,0-1-0.1-1.3c-0.2-1.5-1.4-2.6-2.9-2.8c-1.2-0.1-2.2,0.4-3,1.3
				c-0.1,0.2-0.5,0.7-0.6,0.7c-0.3,0.1-0.5-0.1-0.5-0.3c-0.1-0.5,1-1.5,1.4-1.8c2.1-1.5,5-0.7,6,1.6c0.3,0.7,0.5,1.5,0.4,2.2
				C698.8,336.1,698.3,336.1,698.2,335.9z" />
				<path class="st5" d="M697.5,337.1c0,0-0.2,0.3-0.3,0.3c-1.3,1.4-3.5,1.4-4.8,0.1c-0.6-0.6-0.9-1.3-1-2.2c0.5-0.5,0.5,0.2,0.6,0.5
				c0.5,1.8,2.6,2.7,4.3,1.8c0.6-0.3,0.9-0.8,1-0.9C697.3,336.7,697.5,336.9,697.5,337.1z" />
				<g>
					<path class="st5" d="M698.1,334.6c-0.2,0.2-0.7,1.1-0.8,1.2c-0.3,0.2-0.5,0-0.5-0.1c0,0,0.2-0.2,0.2-0.2
					c0.1-0.2-0.1-0.4-0.2-0.4c-0.1-0.1-0.4-0.5-0.4-0.5c-0.1,0-0.3,0.2-0.4,0.2c-0.2-0.3-0.2-0.3-0.4-0.5c-0.2,0.2-0.4,0.3-0.7,0.5
					c0.3,0.4,0.6,0.8,0.9,1.2c0,0-0.1,0-0.1,0.1c-0.5-0.6-0.5-0.6-0.9-1.2c0,0.1-0.4,0.3-0.4,0.3c0,0,0,0.1,0,0.1
					c0,0-0.6,0.5-0.7,0.6c-0.2,0.3,0.1,0.6,0.4,0.5c0.1,0,0.6-0.5,0.8-0.6c0.1,0.1,0.2,0.3,0.3,0.4c-0.2,0.1-0.7,0.7-0.9,0.7
					c-0.2,0-0.3-0.1-0.5-0.2c-0.1,0-0.9-0.7-0.9-0.7c-0.3-0.2-0.3-0.4-0.1-0.7c1.2-1.7,1.2-1.7,2.4-3.5
					C696.7,332,697.8,333.1,698.1,334.6z" />
					<g>
						<path class="st5" d="M696.8,335c0,0-0.3,0.3-0.3,0.3c0,0,0,0.1,0,0.1c-0.2,0.2-0.4,0.3-0.6,0.5c-0.3-0.4-0.6-0.8-0.9-1.2
						c0.2-0.2,0.4-0.4,0.7-0.5c0.2,0.3,0.2,0.3,0.4,0.5c0.1-0.1,0.3-0.3,0.4-0.2C696.4,334.6,696.7,335,696.8,335z" />
						<g>
							<path class="st5" d="M695.7,336c-0.1,0.1-0.3,0.2-0.4,0.4c0,0-0.1-0.1-0.1-0.1c-0.1-0.1-0.2-0.3-0.3-0.4
							c-0.2,0.1-0.7,0.6-0.8,0.6c-0.3,0.1-0.6-0.2-0.4-0.5c0.1-0.1,0.7-0.6,0.7-0.6c0,0,0-0.1,0-0.1c0,0,0.4-0.3,0.4-0.3
							C695.3,335.4,695.3,335.4,695.7,336z" />
							<path class="st5" d="M694.5,335.5c0,0,0.1,0.1,0.1,0.1c-0.1,0.1-0.6,0.5-0.7,0.6c-0.1,0.1-0.2-0.1-0.2-0.1
							C693.9,336,694.5,335.5,694.5,335.5z" />
						</g>
					</g>
				</g>
			</g>
		</g>
	</g>
</svg>